<svg width="82" height="82" viewBox="0 0 82 82" fill="none" xmlns="http://www.w3.org/2000/svg">
<path d="M69.7 0C62.9186 0 57.4 6.13178 57.4 13.6667C57.4 15.7702 57.8656 17.7393 58.6332 19.5213L43.4024 36.4444H23.8473C22.1488 31.1543 17.6366 27.3333 12.3 27.3333C5.5186 27.3333 0 33.4651 0 41C0 48.5349 5.5186 54.6667 12.3 54.6667C17.6366 54.6667 22.1488 50.8457 23.8473 45.5556H43.4024L58.6332 62.4787C57.8656 64.2607 57.4 66.2298 57.4 68.3333C57.4 75.8682 62.9186 82 69.7 82C76.4814 82 82 75.8682 82 68.3333C82 60.7984 76.4814 54.6667 69.7 54.6667C67.8068 54.6667 66.0346 55.1839 64.4308 56.0369L50.8976 41L64.4308 25.9631C66.0346 26.816 67.8068 27.3333 69.7 27.3333C76.4814 27.3333 82 21.2016 82 13.6667C82 6.13178 76.4814 0 69.7 0Z" fill="white"/>
</svg>
