<svg width="15" height="8" viewBox="0 0 15 8" fill="none" xmlns="http://www.w3.org/2000/svg">
<path d="M2.39391 3.90305C2.39391 4.02846 2.3005 4.16337 2.32485 4.26993C2.39477 4.57581 2.44216 4.92946 2.46945 5.24324C2.4802 5.36692 2.64066 5.92514 2.86007 5.72882C3.24499 5.38442 3.75455 5.21096 4.13336 4.84399C4.3973 4.5883 4.53277 4.27267 4.72469 3.96347C4.95258 3.59632 5.19616 3.3872 5.53183 3.12612C5.57445 3.09297 5.75627 2.9972 5.75627 2.93189C5.75627 2.84609 5.47039 2.71269 5.41745 2.67507C5.0756 2.43218 4.89573 2.42689 4.49377 2.42689C4.40225 2.42689 4.34496 2.41815 4.27796 2.48516C4.25805 2.50506 4.08341 2.61796 4.15926 2.65133C4.40473 2.75934 4.70906 2.78595 4.9664 2.88441C5.33353 3.02488 5.70294 3.14732 6.08431 3.24266C6.58518 3.36788 7.08493 3.46488 7.59931 3.51458C8.15796 3.56856 8.72517 3.66997 9.28696 3.66997C10.3041 3.66997 11.2994 3.78104 12.3083 3.58364C12.5158 3.54306 12.674 3.47574 12.8867 3.47574C12.989 3.47574 13.5582 3.45999 13.4651 3.32035" stroke="#436B5C" stroke-width="3" stroke-linecap="round"/>
</svg>
