<svg width="18" height="19" viewBox="0 0 18 19" fill="none" xmlns="http://www.w3.org/2000/svg">
<path d="M2.09424 15.2717C2.27507 15.2717 2.44899 15.2212 2.62082 15.1681C3.25013 14.9738 3.85043 14.703 4.4466 14.4257C5.38317 13.9902 6.30946 13.5487 7.17447 12.9798C7.86427 12.5261 8.51263 12.054 9.08657 11.4561C9.40185 11.1277 9.81473 10.8265 10.0966 10.4742C10.2124 10.3294 10.3789 10.1673 10.5217 10.0512C10.6108 9.97883 10.5957 10.0187 10.5368 10.0944C10.3744 10.3031 10.2353 10.5274 10.0707 10.7353C9.30887 11.6976 8.57163 12.6709 7.72695 13.5625C7.5628 13.7357 7.4007 13.9176 7.21331 14.0675C7.06211 14.1884 6.8733 14.3827 6.68673 14.4473C6.58441 14.4827 6.42115 14.3295 6.31985 14.3005C5.95724 14.1969 5.55965 14.2102 5.20626 14.0826C4.95766 13.9928 4.89117 13.7579 4.89117 13.5215C4.89117 13.2018 4.86451 12.8701 4.8998 12.5525C4.93831 12.2059 5.14861 11.8952 5.33574 11.6115C5.61905 11.182 5.91376 10.752 6.24216 10.3555C6.71422 9.78552 7.2851 9.32501 7.84348 8.8448C8.92329 7.91617 9.73832 6.7298 10.7936 5.77595C11.0784 5.51858 11.4368 5.30333 11.7044 5.03571C12.1121 4.628 10.6713 5.55329 10.1872 5.86659C8.92863 6.68119 7.74051 7.55844 6.57882 8.50382C6.24372 8.77653 5.87239 9.00739 5.56666 9.31312C5.3825 9.49728 5.19834 9.68144 5.01418 9.8656C4.96104 9.91874 4.8336 10.0049 4.81563 10.0857C4.78558 10.221 4.73744 10.3479 4.70557 10.485C4.69778 10.5185 4.63531 10.7305 4.62788 10.7094C4.56853 10.5413 5.23764 10.0639 5.32279 9.99293C7.52733 8.15581 9.72489 6.23726 11.6612 4.11203C11.794 3.96626 11.8812 3.80942 12 3.65667C12.2681 3.312 12.5765 3.0025 12.8849 2.69414C13.0429 2.53607 13.247 2.41857 13.3985 2.2582C13.4266 2.22848 13.4055 2.15605 13.3683 2.18914C13.3337 2.21988 13.3597 2.37616 13.3597 2.41575C13.3597 3.92472 13.2548 5.47055 12.6906 6.88091C12.6059 7.09268 12.5852 7.40044 12.5439 7.62762C12.4403 8.19741 12.3057 8.74334 12.1079 9.28938C11.9103 9.83498 11.6069 10.3635 11.331 10.8734C11.0423 11.4072 10.7727 11.9819 10.4224 12.4791C9.95096 13.1483 9.44162 13.7659 8.99161 14.4516C8.83967 14.6831 8.82628 14.769 8.79306 15.0537C8.77719 15.1898 8.5855 16.547 8.6981 16.5536C8.82929 16.5613 8.9473 16.5577 9.07793 16.5838C9.25358 16.619 9.37273 16.7275 9.53546 16.7867C9.76065 16.8686 9.9901 16.8452 10.1699 16.6874C10.7421 16.1856 11.2247 15.5611 11.7367 14.9998C12.1399 14.5577 12.6026 14.1831 12.9712 13.7092C13.5245 12.9978 14.126 12.326 14.7409 11.6676C15.0464 11.3405 15.4976 10.6902 16.04 10.7677C16.1996 10.7905 16.1266 10.8511 16.0767 10.9425C15.9401 11.193 15.6375 11.4125 15.4487 11.6202C15.3837 11.6917 14.9958 12.1791 14.9437 11.9611C14.7457 11.1332 14.5014 10.3511 14.3934 9.49871C14.3586 9.22412 14.3697 8.94869 14.3697 8.67215C14.3697 8.64318 14.3779 8.21408 14.2639 8.35491C14.116 8.53767 13.9925 8.79299 13.8776 8.98724C13.476 9.66598 13.0705 10.3415 12.6475 11.0072C12.0999 11.869 11.5196 12.7129 11.0224 13.6056C10.7923 14.0187 11.1408 13.4318 11.1843 13.3208C11.2295 13.2052 11.2265 13.0792 11.2706 12.9625C11.4007 12.6182 11.5749 12.2881 11.7583 11.9698C12.0701 11.4287 12.458 10.917 12.8352 10.4202C12.9304 10.2948 13.9396 8.82184 13.787 8.74553" stroke="#436B5C" stroke-width="3" stroke-linecap="round"/>
</svg>
