<svg width="20" height="11" viewBox="0 0 20 11" fill="none" xmlns="http://www.w3.org/2000/svg">
<path d="M17.8262 2.40971C18.3504 2.63438 16.4904 4.35515 16.2441 4.53301C15.4063 5.13812 14.6902 5.91436 13.8201 6.49441C13.7779 6.52254 13.0059 6.95977 13.0059 7.03101C13.0059 7.15523 13.7449 6.40894 13.797 6.36026C15.0991 5.14211 16.5356 4.2739 17.5717 2.78441C17.7835 2.48 17.9788 2.17383 18.2425 1.91011C18.4958 1.65678 18.4923 1.81305 18.4923 2.09515C18.4923 2.50837 18.3446 3.03338 18.1777 3.40891C18.0063 3.79458 17.9505 4.31012 17.8077 4.72268C17.687 5.07135 17.6624 5.50687 17.5116 5.82365C17.094 6.70062 16.2484 7.12966 15.6612 7.86368C15.545 8.00894 15.1557 8.11081 14.9905 8.24301C14.6895 8.48377 14.2703 8.82813 13.8756 8.89989C13.0732 9.04579 12.1607 8.75112 11.373 8.57607C10.6193 8.40859 9.77048 8.48818 8.98139 8.48818C7.90158 8.48818 6.88409 8.37228 5.81726 8.21988C4.95617 8.09687 4.10488 8.07185 3.23599 8.07185C2.90909 8.07185 2.58219 8.07185 2.25529 8.07185C2.1754 8.07185 1.66098 8.03594 1.92223 7.90531" stroke="#436B5C" stroke-width="3" stroke-linecap="round"/>
</svg>
