<svg width="6" height="6" viewBox="0 0 6 6" fill="none" xmlns="http://www.w3.org/2000/svg">
<path d="M4.38182 2.33057C4.38182 2.49441 4.38182 2.65826 4.38182 2.8221C4.38182 2.97954 4.44926 3.12848 4.45745 3.27583C4.46676 3.4434 4.38734 3.58408 4.31461 3.72956C4.24655 3.86567 4.20616 3.81558 4.07934 3.8808C3.93386 3.95562 3.82627 4.06327 3.65502 4.06985C3.4254 4.07868 3.24326 4.28435 3.02064 4.29672C2.81057 4.30839 2.58815 4.30909 2.37786 4.29672C2.29894 4.29207 2.2754 4.12447 2.20562 4.12447C2.19855 4.12447 2.377 4.24216 2.38627 4.2505C2.49378 4.34727 2.74149 4.56791 2.4997 4.32612C2.44645 4.27287 2.18423 3.81434 2.151 3.8808" stroke="#3F6457" stroke-width="3" stroke-linecap="round"/>
</svg>
