<svg width="17" height="14" viewBox="0 0 17 14" fill="none" xmlns="http://www.w3.org/2000/svg">
<path d="M3.67347 11.661C3.37816 11.661 3.13576 11.5854 2.84163 11.5854C2.61577 11.5854 2.27505 11.6 2.09383 11.745C2.05281 11.7778 1.80544 11.8122 1.82075 11.8122C1.95939 11.8122 2.09803 11.8122 2.23667 11.8122C2.51854 11.8122 2.79968 11.7744 3.0895 11.7744C3.70111 11.7744 4.32126 11.7699 4.92122 11.7366C5.07315 11.7282 5.73611 11.6987 5.44216 11.4047C5.33834 11.3009 5.38149 11.1369 5.32873 11.0182C5.27357 10.8941 5.2237 10.7584 5.2237 10.6212C5.2237 10.1221 5.07685 9.64157 5.2048 9.12979C5.26485 8.88958 5.29538 8.63707 5.39595 8.40719C5.52425 8.11394 5.69247 7.90489 5.86438 7.63627C6.04056 7.36099 6.13321 7.03509 6.24459 6.72882C6.2628 6.67873 6.29705 6.59022 6.33911 6.55657C6.3538 6.54482 6.35802 7.00317 6.35802 7.06701C6.35802 7.49494 6.31857 7.94824 6.41683 8.36938C6.43285 8.43801 6.55245 8.88407 6.6605 8.67396C6.85646 8.29294 7.00558 7.88552 7.19825 7.50183C7.44796 7.00459 7.72516 6.52 7.98387 6.02722C8.14312 5.7239 8.39644 5.45102 8.58884 5.16598C8.75717 4.9166 8.98034 4.79887 9.24002 4.65764C10.0921 4.19425 11.0047 3.79776 11.7943 3.22924C12.1385 2.98148 12.4425 2.70499 12.8236 2.51084C13.064 2.38839 13.3204 2.33566 13.5588 2.22726C13.8602 2.09028 12.9118 2.37352 12.5989 2.48143C11.5017 2.85977 10.4306 3.29245 9.45218 3.92453C9.17972 4.10055 8.90925 4.28254 8.64346 4.46859C8.61501 4.4885 8.46605 4.63486 8.4208 4.62193C8.32665 4.59503 8.85247 3.97604 8.87452 3.95184C10.1821 2.51716 12.2141 2.18516 14.0651 2.09702C14.3064 2.08553 15.0313 2.09492 14.7898 2.09492" stroke="#446D5E" stroke-width="3" stroke-linecap="round"/>
</svg>
