<svg width="8" height="9" viewBox="0 0 8 9" fill="none" xmlns="http://www.w3.org/2000/svg">
<path d="M4.91352 7.11743C5.32191 7.11743 5.73191 6.80499 6.10912 6.65991C6.26925 6.59832 5.70251 6.45705 5.61275 6.45705C5.25545 6.45705 4.89027 6.58292 4.5639 6.72034C4.4425 6.77145 4.30228 6.78723 4.17544 6.84551C4.07868 6.88996 3.8427 6.99658 3.73087 6.99658C3.59715 6.99658 4.05124 6.59037 4.08264 6.56711C4.68436 6.1214 5.04708 5.4027 5.56527 4.87298C5.83747 4.59473 5.96325 4.20207 6.19329 3.89535C6.26291 3.80252 6.39897 3.49303 6.30983 3.56731C6.14813 3.70206 5.93771 3.77465 5.76814 3.90182C5.36634 4.20318 4.96353 4.51907 4.48621 4.68954C3.87532 4.90771 3.38596 5.3578 2.78561 5.57221C2.63369 5.62647 2.50437 5.73746 2.3583 5.78803C2.2643 5.82056 2.15439 5.77198 2.06048 5.79882C1.92016 5.83891 2.03473 5.82024 2.09717 5.85493C2.1686 5.89461 2.20656 5.98647 2.27198 6.0211C2.33707 6.05557 2.62214 5.74401 2.68634 5.7017C3.23901 5.33744 3.79656 4.99769 4.25313 4.51257C4.55846 4.18816 4.77386 3.79155 5.06891 3.46372C5.27018 3.24008 5.43445 2.93077 5.53506 2.65011C5.63919 2.35964 5.9663 2.2375 6.11775 1.97246C6.23017 1.77574 6.02043 1.76945 5.88468 1.67896" stroke="#31463E" stroke-width="3" stroke-linecap="round"/>
</svg>
